<svg width="128" height="128" viewBox="0 0 128 128" xmlns="http://www.w3.org/2000/svg">
  <circle cx="64" cy="64" r="64" fill="#1DB954"/>
  <g fill="#191414">
    <path d="M64 20 C 39.5 20, 20 39.5, 20 64 C 20 88.5, 39.5 108, 64 108 C 88.5 108, 108 88.5, 108 64 C 108 39.5, 88.5 20, 64 20 Z M 64 98 C 45 98, 30 83, 30 64 C 30 45, 45 30, 64 30 C 83 30, 98 45, 98 64 C 98 83, 83 98, 64 98 Z"/>
    <ellipse cx="52" cy="58" rx="8" ry="10" fill="#1DB954"/>
    <ellipse cx="76" cy="58" rx="8" ry="10" fill="#1DB954"/>
    <path d="M 45 72 Q 64 85, 83 72" stroke="#1DB954" stroke-width="6" fill="none" stroke-linecap="round"/>
  </g>
  <path d="M 40 50 Q 64 35, 88 50" stroke="#191414" stroke-width="4" fill="none" stroke-linecap="round"/>
  <path d="M 44 60 Q 64 48, 84 60" stroke="#191414" stroke-width="4" fill="none" stroke-linecap="round"/>
  <path d="M 48 70 Q 64 60, 80 70" stroke="#191414" stroke-width="4" fill="none" stroke-linecap="round"/>
</svg>
